<svg width="36" height="36" viewBox="0 0 36 36" fill="none" xmlns="http://www.w3.org/2000/svg">
<g style="mix-blend-mode:plus-darker">
<path d="M11.293 18.0068C11.293 17.8408 11.3206 17.6914 11.376 17.5586C11.4368 17.4258 11.5309 17.2985 11.6582 17.1768L20.0669 9.05029C20.2716 8.84554 20.5234 8.74316 20.8223 8.74316C21.0215 8.74316 21.2013 8.79297 21.3618 8.89258C21.5278 8.98665 21.6579 9.11393 21.752 9.27441C21.8516 9.4349 21.9014 9.61475 21.9014 9.81396C21.9014 10.1073 21.7935 10.3646 21.5776 10.5859L13.8745 18.0068L21.5776 25.4194C21.7935 25.6408 21.9014 25.8981 21.9014 26.1914C21.9014 26.3962 21.8516 26.5788 21.752 26.7393C21.6579 26.9053 21.5278 27.0353 21.3618 27.1294C21.2013 27.2235 21.0215 27.2705 20.8223 27.2705C20.5234 27.2705 20.2716 27.1681 20.0669 26.9634L11.6582 18.8369C11.5309 18.7152 11.4368 18.5879 11.376 18.4551C11.3206 18.3167 11.293 18.1673 11.293 18.0068Z" fill="#404040" style="mix-blend-mode:plus-darker"/>
</g>
</svg>
