<svg width="40" height="40" viewBox="0 0 40 40" fill="none" xmlns="http://www.w3.org/2000/svg">
<rect width="40" height="40" rx="12" fill="#A175F0" fill-opacity="0.1"/>
<path d="M22.418 22.631L20.7582 26.1185C20.7268 26.1844 20.6799 26.2417 20.6214 26.2855C20.5628 26.3292 20.4946 26.358 20.4225 26.3695C20.3503 26.3809 20.2765 26.3746 20.2073 26.3512C20.1382 26.3277 20.0757 26.2877 20.0255 26.2347L17.369 23.4305C17.298 23.3557 17.2035 23.3075 17.1012 23.294L13.271 22.793C13.1986 22.7835 13.1297 22.7565 13.07 22.7143C13.0104 22.6722 12.962 22.6162 12.9288 22.5512C12.8957 22.4861 12.8789 22.414 12.8798 22.341C12.8807 22.2681 12.8994 22.1964 12.9342 22.1322L14.7807 18.7392C14.8298 18.6485 14.8462 18.5436 14.8272 18.4422L14.12 14.645C14.1065 14.5731 14.1108 14.4991 14.1325 14.4292C14.1541 14.3594 14.1924 14.2958 14.2441 14.2441C14.2958 14.1924 14.3594 14.1541 14.4292 14.1325C14.499 14.1108 14.5731 14.1066 14.645 14.12L18.4422 14.8272C18.5436 14.8462 18.6485 14.8298 18.7392 14.7807L22.1322 12.9342C22.1964 12.8994 22.2682 12.8808 22.3412 12.8799C22.4142 12.879 22.4864 12.8958 22.5514 12.9291C22.6165 12.9623 22.6725 13.0109 22.7146 13.0706C22.7566 13.1303 22.7836 13.1993 22.793 13.2717L23.294 17.1012C23.3075 17.2035 23.3556 17.298 23.4305 17.369L26.2347 20.0255C26.2877 20.0758 26.3277 20.1382 26.3511 20.2073C26.3746 20.2765 26.3809 20.3503 26.3695 20.4225C26.358 20.4946 26.3292 20.5629 26.2855 20.6214C26.2417 20.6799 26.1844 20.7268 26.1185 20.7582L22.631 22.418C22.5376 22.4624 22.4624 22.5376 22.418 22.631V22.631ZM23.0157 24.0762L24.0762 23.0157L27.2585 26.1972L26.1972 27.2585L23.0157 24.0762V24.0762Z" fill="#A175F0"/>
</svg>
