<svg width="40" height="40" viewBox="0 0 40 40" fill="none" xmlns="http://www.w3.org/2000/svg">
<rect width="40" height="40" rx="12" fill="#5A85E3" fill-opacity="0.1"/>
<path d="M14 20H16.25C16.6478 20 17.0294 20.158 17.3107 20.4393C17.592 20.7206 17.75 21.1022 17.75 21.5V25.25C17.75 25.6478 17.592 26.0294 17.3107 26.3107C17.0294 26.592 16.6478 26.75 16.25 26.75H14C13.6022 26.75 13.2206 26.592 12.9393 26.3107C12.658 26.0294 12.5 25.6478 12.5 25.25V20C12.5 15.8578 15.8578 12.5 20 12.5C24.1423 12.5 27.5 15.8578 27.5 20V25.25C27.5 25.6478 27.342 26.0294 27.0607 26.3107C26.7794 26.592 26.3978 26.75 26 26.75H23.75C23.3522 26.75 22.9706 26.592 22.6893 26.3107C22.408 26.0294 22.25 25.6478 22.25 25.25V21.5C22.25 21.1022 22.408 20.7206 22.6893 20.4393C22.9706 20.158 23.3522 20 23.75 20H26C26 18.4087 25.3679 16.8826 24.2426 15.7574C23.1174 14.6321 21.5913 14 20 14C18.4087 14 16.8826 14.6321 15.7574 15.7574C14.6321 16.8826 14 18.4087 14 20Z" fill="#5A85E3"/>
</svg>
