<svg width="40" height="40" viewBox="0 0 40 40" fill="none" xmlns="http://www.w3.org/2000/svg">
<rect width="40" height="40" rx="12" fill="#F99B4E" fill-opacity="0.1"/>
<path d="M26.75 14H16.25C15.8522 14 15.4706 14.158 15.1893 14.4393C14.908 14.7206 14.75 15.1022 14.75 15.5C14.75 15.8978 14.908 16.2794 15.1893 16.5607C15.4706 16.842 15.8522 17 16.25 17H26.75V26.75C26.75 26.9489 26.671 27.1397 26.5303 27.2803C26.3897 27.421 26.1989 27.5 26 27.5H16.25C15.4544 27.5 14.6913 27.1839 14.1287 26.6213C13.5661 26.0587 13.25 25.2956 13.25 24.5V15.5C13.25 14.7044 13.5661 13.9413 14.1287 13.3787C14.6913 12.8161 15.4544 12.5 16.25 12.5H26C26.1989 12.5 26.3897 12.579 26.5303 12.7197C26.671 12.8603 26.75 13.0511 26.75 13.25V14ZM26 16.25H16.25C16.0511 16.25 15.8603 16.171 15.7197 16.0303C15.579 15.8897 15.5 15.6989 15.5 15.5C15.5 15.3011 15.579 15.1103 15.7197 14.9697C15.8603 14.829 16.0511 14.75 16.25 14.75H26V16.25Z" fill="#F99B4E"/>
</svg>
