<svg width="40" height="40" viewBox="0 0 40 40" fill="none" xmlns="http://www.w3.org/2000/svg">
<rect width="40" height="40" rx="12" fill="#F075BD" fill-opacity="0.1"/>
<path d="M18.125 13.75C20.6672 13.75 22.7663 15.6473 23.0836 18.1031L24.4901 20.3148C24.5828 20.4604 24.5641 20.6779 24.3496 20.7698L23.125 21.2944V23.125C23.125 23.8154 22.5654 24.375 21.875 24.375H20.6256L20.625 26.25H15L15.0002 23.9413C15.0002 23.2033 14.7272 22.5054 14.2222 21.8757C13.5357 21.0196 13.125 19.9328 13.125 18.75C13.125 15.9886 15.3636 13.75 18.125 13.75ZM25.7209 23.814L24.6808 23.1206C25.2773 22.2276 25.625 21.1544 25.625 20.0001C25.625 18.8456 25.2773 17.7724 24.6808 16.8795L25.7209 16.1861C26.45 17.2774 26.875 18.5891 26.875 20.0001C26.875 21.411 26.45 22.7226 25.7209 23.814Z" fill="#F075BD"/>
</svg>
